<svg xmlns:svg="http://www.w3.org/2000/svg" width="100" height="100" xmlns="http://www.w3.org/2000/svg">
    <title>most_search2BF</title>
    <g class="layer">
        <title>Layer 1</title>
        <g id="svg_1">
            <path d="m24.2,79.38334l6.02,0l0,5.87667a6.88,6.71619 0 0 0 13.76,0l0,-5.87667l12.04,0l0,5.87667a6.88,6.71619 0 0 0 13.76,0l0,-5.87667l6.02,0l0,-36.93905l-51.6,0l0,36.93905z" id="svg_2"/>
            <path d="m76.8578,8.47716a3.3798,3.29933 0 0 0 -1.72,-0.45334a3.44,3.3581 0 0 0 -2.9756,1.67905l-5.16,8.75623a25.8,25.18571 0 0 0 -33.97,0l-5.1944,-8.75623a3.44,3.3581 0 0 0 -2.9756,-1.67905a3.3798,3.29933 0 0 0 -1.72,0.45334a3.44,3.3581 0 0 0 -1.2642,4.5838l6.3898,10.79628a25.5506,24.94225 0 0 0 -4.0678,13.54991l51.6,0a25.5506,24.94225 0 0 0 -4.0678,-13.54991l6.3898,-10.79628a3.44,3.3581 0 0 0 -1.2642,-4.5838zm-36.7478,22.2138a2.58,2.51857 0 1 1 2.58,-2.51857a2.58,2.51857 0 0 1 -2.58,2.51857zm19.78,0a2.58,2.51857 0 1 1 2.58,-2.51857a2.58,2.51857 0 0 1 -2.58,2.51857z" id="svg_3"/>
            <path d="m87.84,42.4443a5.16,5.03714 0 0 0 -5.16,5.03714l0,16.79048a5.16,5.03714 0 0 0 10.32,0l0,-16.79048a5.16,5.03714 0 0 0 -5.16,-5.03714z" id="svg_4"/>
            <path d="m12.16,42.4443a5.16,5.03714 0 0 0 -5.16,5.03714l0,16.79048a5.16,5.03714 0 0 0 10.32,0l0,-16.79048a5.16,5.03714 0 0 0 -5.16,-5.03714z" id="svg_5"/>
        </g>
    </g>
</svg>