<svg xmlns:svg="http://www.w3.org/2000/svg" width="100" height="100" xmlns="http://www.w3.org/2000/svg">
    <title>dialog_1</title>
    <g class="layer">
        <title>Layer 1</title>
        <path d="m89.7695,86.35039l0,0.5367l-0.16101,0.26835a4.91081,4.91081 0 0 1 -0.48303,0.91239a3.48855,3.48855 0 0 1 -0.26835,0.40253a3.94475,3.94475 0 0 1 -2.97869,1.36859l0,0a6.09155,6.09155 0 0 1 -2.20047,-0.21468l-25.62744,-7.11128a5.07182,5.07182 0 0 1 -1.26125,-0.64404l-2.79084,0l0,-0.29519a33.4096,33.4096 0 0 1 -3.99842,0.29519c-22.00471,0 -39.85,-16.10101 -39.85,-35.87842s17.84529,-35.85158 39.85,-35.85158s39.85,16.10101 39.85,35.85158l0,39.87684a3.03236,3.03236 0 0 1 -0.08051,0.48303zm-7.8895,-32.36303l0,-8.05051c0,-15.4033 -14.27623,-27.88158 -31.88,-27.88158s-31.88,12.53195 -31.88,27.93525s14.27623,27.90842 31.88,27.90842l8.05051,0l0,0a6.22572,6.22572 0 0 1 2.22731,0.18785l21.68269,6.03788l-0.08051,-26.13731zm-47.82,0a3.97158,3.97158 0 0 1 3.97158,-3.99842l23.93684,0a3.99842,3.99842 0 0 1 0,8.05051l-23.93684,0a3.97158,3.97158 0 0 1 -3.97158,-3.97158l0,-0.08051zm27.90842,-12.04892l-23.93684,0a3.99842,3.99842 0 0 1 0,-8.05051l23.93684,0a3.99842,3.99842 0 0 1 0,8.05051z" fill="black" id="svg_1"/>
    </g>
</svg>